<svg xmlns="http://www.w3.org/2000/svg" xmlns:xlink="http://www.w3.org/1999/xlink" version="1.1" x="0px" y="0px" viewBox="0 0 50 62.5" style="enable-background:new 0 0 50 50;" xml:space="preserve"><path d="M19.3199997,24.7600002c-1.1045704,0-2,0.8954296-2,2s0.8954296,2,2,2s2-0.8954296,2-2  S20.4245701,24.7600002,19.3199997,24.7600002z M18.8099995,26.7600002  c-0.2871342,0.0055218-0.5243816-0.2227688-0.5299034-0.5099049c-0.0055237-0.2871342,0.2227688-0.5243797,0.5099049-0.5299034  c0.2871342-0.0055218,0.5243797,0.2227707,0.5299034,0.5099049c0.0000629,0.0032997,0.0000954,0.0066013,0.0000954,0.009903  c0,0.2816658-0.2283344,0.5100002-0.5100002,0.5100002l0,0V26.7600002z"/><path d="M30.3999996,24.7600002c-1.1045704,0.0000019-2,0.8954315-1.9999981,2.0000019s0.8954315,2,2.0000019,1.9999981  c1.1045685-0.0000019,1.9999981-0.8954315,1.9999981-2c0-1.1045704-0.8954296-2-2-2H30.3999996z M29.8799992,26.7600002  c-0.2871876,0-0.5200005-0.2328129-0.5200005-0.5200005c0.0000019-0.2871876,0.2328129-0.5200005,0.5200005-0.5200005  c0.2871895,0.0000019,0.5200005,0.2328129,0.5200005,0.5200005c0.0000534,0.2816658-0.2282372,0.5100441-0.509901,0.5100975  c-0.0033665,0.0000019-0.0067329-0.0000305-0.0100994-0.0000973V26.7600002z"/><path d="M27,29.1399994c-0.356739,0.0053654-0.6446342,0.2932606-0.6499996,0.6499996  c0.0000954,0.8063354-0.6534901,1.4600773-1.4598255,1.4601746c-0.8063374,0.0000954-1.4600792-0.653492-1.4601746-1.4598274  c0-0.0001163,0-0.0002308,0-0.0003471c-0.0447845-0.3617458-0.374342-0.6186943-0.7360878-0.5739117  c-0.3002243,0.0371685-0.5367432,0.2736874-0.5739117,0.5739117c-0.0008678,1.529829,1.2385998,2.7707043,2.7684269,2.7715702  c1.529829,0.0008698,2.7707043-1.2385979,2.7715721-2.7684269c0-0.0010471,0-0.0020962,0-0.0031433  C27.6545353,29.4294033,27.3606377,29.1399574,27,29.1399994z"/><path d="M32.7099991,19.1000004H17.0599995c-3.6356506,0.0055161-6.5800047,2.9543457-6.5799999,6.5900002v6.3900013  c-0.0000067,2.4040604,1.9122219,4.7108002,4.3162775,4.7163124h20.1000023  c2.4056816-0.005497,4.3882256-2.3106308,4.3937225-4.7163124v-6.3900013  C39.2900047,22.0543442,36.3456497,19.1055164,32.7099991,19.1000004z M37.9899979,32.0999985  c0,1.689991-1.4037285,3.4163132-3.0937195,3.4163132c-0.0000038,0-0.0000038,0-0.0000038,0H14.796277  c-1.6860857-0.0055084-3.0162868-1.730217-3.0162773-3.4163132v-6.4099979  c-0.0000048-2.9176846,2.3623199-5.284483,5.2799997-5.289999h15.6499996c2.9215851,0,5.2900009,2.368412,5.2900009,5.289999  L37.9899979,32.0999985z"/><path d="M49.0600014,15.0900002c-0.1893959-1.4122515-1.4877853-2.403573-2.9000359-2.214179  s-2.3848724,1.4854031-2.21418,2.9000368c0.1948395,1.6147671,1.6241646,2.0902786,1.9442139,2.1741428l0.2700005,1.5200005  L45,18.8999996c-0.2870216-0.1542568-0.6364479-0.0420094-0.7990074,0.2403946  c-0.0742493,0.1289883-0.2809906,1.1296062-0.2809906,1.1296062c-0.5338593-0.2461739-1.1050186-0.4016361-1.6899986-0.4599991  c-0.7262383-3.5582905-3.8684425-6.1055708-7.5-6.0799999H15.2799997c-3.6288023-0.017725-6.766654,2.5260258-7.5,6.0799999  c-0.7022481,0.0733738-1.3824801,0.2876472-2,0.6299992l-0.27-1.1700001  c-0.0747056-0.3641186-0.4276466-0.575882-0.8499999-0.3899994L3.54,19.4500008l0.2510438-1.4673767  c2.1489282-0.6174641,2.2070827-2.5739889,1.8191156-3.5745354c-0.6341796-1.6355162-2.8239498-2.0507393-4.0367823-1.048378  c-1.1420017,0.85215-1.3628849,2.4875736-0.5107367,3.6295757c0.3731424,0.5000648,0.9070587,0.8739052,1.5170249,1.0052109  l-0.5396652,2.6055012c-0.1223532,0.5176487,0.4776468,0.6705894,0.8699999,0.5100002l1.6400001-0.8400002l0.1900001,0.9099998  c-1.0962052,1.0420246-1.7177854,2.4875603-1.72,4c-0.0405097,2.7002316,1.9199736,5.0152245,4.5900002,5.4200001v1.4700012  c0.0548968,4.1691055,3.4707127,7.5089188,7.6399994,7.4700012h4.1900005  c-0.0122967,1.5097961-0.422781,2.9896126-1.1900005,4.2900009c-0.708334,1.1074982,0.4225502,1.8265839,1.2000008,1.6300011  c3.2815647-0.8297653,5.7813301-4.3225594,6.7012806-5.9080086l8.5387211-0.0119934  c4.171505,0.0444374,7.5905724-3.2985497,7.6399994-7.4700012v-1.3899994C45.0334167,30.3069458,47.0357056,27.9787979,47,25.25  c0.0191345-1.6708107-0.7155151-3.261322-2-4.3299999l0.1199989-0.6200008l1.6399994,0.8400002  c0.5251541,0.2945499,0.9350624-0.1048508,0.8800011-0.5300007L47.0600014,18c1.3211823-0.2901001,2.1940041-1.5513306,2-2.8900003  V15.0900002z M2.0671875,16.2718754c-0.4583963-0.6102743-0.3503091-1.469511,0.2562499-1.9328127  c0.621875-0.4750004,1.5134785-0.355587,1.971875,0.2546873c0.2110019,0.2879887,0.3158836,0.6722708,0.2718749,1.0265627  C4.4734411,16.3727016,3.8058825,16.9058819,3,16.8199997C2.3784313,16.7313728,2.0671875,16.2718754,2.0671875,16.2718754z   M7.6200013,21.1900005v8.1499996c-2.2616057-0.4899731-3.6977971-2.7205696-3.2078233-4.9821758  c0.3478761-1.6057148,1.602108-2.8599472,3.2078233-3.2078228c0,0,0.0199986,0.0299988,0.0199986,0.039999H7.6200013z   M41,32.2200012c-0.1755409,3.3625984-2.9528198,5.9992599-6.3199997,6h-9.2022572  c-0.1043949,0-0.2014694,0.053627-0.2570496,0.1419945l-0.9106941,1.4480057  c-0.4099998,0.7000008-3.8899994,4.4500008-4.5500011,4.1100006C20.3957672,42.6944008,20.77631,41.3624496,21,40  c0.0642185-0.3911438,0.0959187-1.4807053,0.088583-1.5679131c0.0061989-0.1097183-0.0811005-0.2020874-0.1909924-0.2020874  h-5.7075911C11.8148947,38.136055,9.0994015,35.4249496,9,32.0499992V21.1200008  C9.1474314,17.7411098,11.8984299,15.0601997,15.2799997,15h19.4400024C38.1337624,15.1283751,40.871624,17.8662415,41,21.2800007  V32.2200012z M45.7299995,25.2200012c0.0277977,2.011446-1.4010429,3.7488804-3.3800011,4.1100006v-8.1900024  C45.5628815,21.4695339,45.7299995,25.2200012,45.7299995,25.2200012z M46.6899986,16.7600021  c-0.35429,0.0440083-0.7120094-0.0489979-1-0.2600002c-0.6077194-0.462656-0.7282906-1.3289824-0.2700005-1.9400005  c0.2155914-0.2981138,0.5450363-0.4936085,0.9099998-0.54h0.2000008c0.7676315,0.0082455,1.3984337,0.6375322,1.3749886,1.40485  C47.875,16.40625,47.0534096,16.709137,46.6899986,16.7600021z"/><path d="M41.4599991,5.1199999c0.3589859,0.000001,0.6500015-0.2910132,0.6500015-0.6499982c0-0.000001,0-0.0000014,0-0.0000019  V3.1500001c0.00037-0.3589849-0.2903442-0.6503003-0.6493301-0.650671  c-0.3589821-0.0003707-0.6502991,0.2903435-0.6506691,0.6493285c0,0.0004475,0,0.000895,0,0.0013425v1.3199997  C40.8153648,4.8267379,41.10326,5.1146331,41.4599991,5.1199999z"/><path d="M41.4599991,9.46c0.3589859,0.000001,0.6500015-0.2910137,0.6500015-0.6499987v-0.000001V7.5700002  c0.00037-0.3589849-0.2903442-0.6503-0.6493301-0.650671c-0.3589821-0.0003705-0.6502991,0.2903438-0.6506691,0.6493282  c0,0.0004478,0,0.000895,0,0.0013428v1.2400002C40.8153687,9.1667385,41.10326,9.4546337,41.4599991,9.46z"/><path d="M43,6.6300001h1.3199997c0.3589859,0,0.6500015-0.2910151,0.6500015-0.6500001s-0.2910156-0.6500001-0.6500015-0.6500001H43  c-0.3589859,0-0.6500015,0.2910151-0.6500015,0.6500001S42.6410141,6.6300001,43,6.6300001L43,6.6300001z"/><path d="M38.6399994,6.6300001H40c0.3589859,0,0.6500015-0.2910151,0.6500015-0.6500001S40.3589859,5.3299999,40,5.3299999l0,0  h-1.3600006c-0.3589859,0-0.6500015,0.2910151-0.6500015,0.6500001S38.2810135,6.6300001,38.6399994,6.6300001z"/><path d="M34,7.6300001C34.3396225,7.6144586,34.6098938,7.3398271,34.6199989,7V6.3400002  c-0.00037-0.3589849-0.291687-0.6496992-0.6506691-0.6493282c-0.3584633,0.00037-0.6489601,0.2908673-0.6493301,0.6493282V7  c0.0106544,0.3588271,0.3101807,0.6410756,0.6690063,0.6304197C33.992672,7.630311,33.9963379,7.6301708,34,7.6300001z"/><path d="M34,11.1999998c0.3589859,0.000001,0.6500015-0.2910137,0.6500015-0.6499987v-0.000001V9.9200001  c0.00037-0.3589849-0.2903442-0.6503-0.6493301-0.650671c-0.3589821-0.000371-0.6502991,0.2903433-0.6506691,0.6493282  c0,0.0004473,0,0.0008955,0,0.0013428v0.6300001C33.3500023,10.9089842,33.6410141,11.1999989,34,11.1999998z"/><path d="M35.3699989,9.1400003H36c0.3589859,0,0.6500015-0.2910147,0.6500015-0.6500006  c0-0.3589849-0.2910156-0.6499996-0.6500015-0.6499996h-0.6399994c-0.3589859,0-0.6500015,0.2910147-0.6500015,0.6499996  c0,0.3589859,0.2910156,0.6500006,0.6500015,0.6500006H35.3699989z"/><path d="M32,9.1400003h0.6300011c0.3589859,0,0.6500015-0.2910147,0.6500015-0.6500006  c0-0.3589849-0.2910156-0.6499996-0.6500015-0.6499996H32c-0.3589859,0-0.6499996,0.2910147-0.6499996,0.6499996  C31.3500004,8.8489857,31.6410141,9.1400003,32,9.1400003z"/><text x="0" y="65" fill="#000000" font-size="5px" font-weight="bold" font-family="'Helvetica Neue', Helvetica, Arial-Unicode, Arial, Sans-serif">Created by Frühstück</text><text x="0" y="70" fill="#000000" font-size="5px" font-weight="bold" font-family="'Helvetica Neue', Helvetica, Arial-Unicode, Arial, Sans-serif">from the Noun Project</text></svg>